<svg xmlns="http://www.w3.org/2000/svg" viewBox="0 0 851.92 988">
  <g data-name="Layer 2">
    <path d="M279.89.43c38.57-5.08 66.56 35.7 47.13 69a175.81 175.81 0 01-16.68 23.39C261 152.18 114.39 229.86 151.42 519.23s258.44 252.06 273.87 148.49-12.35-120.32-32.41-217.79c-19.77-96.09-21.32-258.55 68.66-267.29 94.12-9.13 105.89 45.91 121.89 124.89 37.8 186.57 144.82 170.29 169.72 99 15.43-44.17-5.39-142.13-106.12-208a51.75 51.75 0 01-12.37-11c-7.63-9.66-14.28-25.85 7.4-41.42 34-24.37 208.3 103.57 209.84 252.82C853.43 546.8 751.64 596 643.61 554.26c-2.61-1-5.32-2.43-7.83-3.65-22.24-10.84-112.86-47.2-133.35-221-.53-4.53-6.17-24.36-15.43-25.89-11.55-1.9-20.34 8.34-17 38.08 23.14 204.08 82.44 212.9 140.4 318.31 58.64 106.61 38.58 190.37 0 237.59-104.1 127.42-441.57 154.39-567-150C-92.24 418.5 118.93 21.62 279.89.43z" data-name="Layer 1"/>
  </g>
</svg>
